<svg width="334" height="334" viewBox="0 0 334 334" fill="none" xmlns="http://www.w3.org/2000/svg">
	<path
		d="M217.005 33.668H117.005C71.0052 33.668 33.6719 71.0013 33.6719 117.001V217.001C33.6719 263.001 71.0052 300.335 117.005 300.335H217.005C263.005 300.335 300.339 263.001 300.339 217.001V117.001C300.339 71.0013 263.005 33.668 217.005 33.668ZM254.672 204.668C254.672 232.335 232.339 254.668 204.672 254.668H129.339C101.672 254.668 79.3385 232.335 79.3385 204.668V129.335C79.3385 101.668 101.672 79.3346 129.339 79.3346H204.505C232.172 79.3346 254.505 101.668 254.505 129.335V204.668H254.672Z"
		fill="black" />
	<path
		d="M118.047 12.834V33.6673H117.047C108.714 33.6673 100.714 34.834 93.0469 37.1673V12.834C93.0469 6.00065 98.5469 0.333984 105.547 0.333984C112.38 0.333984 118.047 6.00065 118.047 12.834Z"
		fill="#C32525" />
	<path
		d="M179.5 12.834V33.6673H154.5V12.834C154.5 6.00065 160.167 0.333984 167 0.333984C173.833 0.333984 179.5 6.00065 179.5 12.834Z"
		fill="#C32525" />
	<path
		d="M241.219 12.834V37.1673C233.552 34.834 225.385 33.6673 217.052 33.6673H216.219V12.834C216.219 6.00065 221.885 0.333984 228.719 0.333984C235.552 0.333984 241.219 6.00065 241.219 12.834Z"
		fill="#C32525" />
	<path
		d="M333.654 105.348C333.654 112.348 328.154 117.848 321.154 117.848H300.32V117.014C300.32 108.681 299.154 100.514 296.82 92.8477H321.154C328.154 92.8477 333.654 98.5143 333.654 105.348Z"
		fill="#C32525" />
	<path
		d="M333.669 167C333.669 173.833 328.169 179.5 321.169 179.5H300.336V154.5H321.169C328.169 154.5 333.669 160 333.669 167Z"
		fill="#C32525" />
	<path
		d="M333.654 228.654C333.654 235.488 328.154 241.154 321.154 241.154H296.82C299.154 233.488 300.32 225.321 300.32 216.988V216.154H321.154C328.154 216.154 333.654 221.654 333.654 228.654Z"
		fill="#C32525" />
	<path
		d="M241.219 296.818V321.152C241.219 327.985 235.552 333.652 228.719 333.652C221.885 333.652 216.219 327.985 216.219 321.152V300.318H217.052C225.385 300.318 233.552 299.152 241.219 296.818Z"
		fill="#C32525" />
	<path
		d="M179.633 300.334V321.167C179.633 328.001 173.966 333.667 167.133 333.667C160.133 333.667 154.633 328.001 154.633 321.167V300.334H179.633Z"
		fill="#C32525" />
	<path
		d="M118.047 300.318V321.152C118.047 327.985 112.38 333.652 105.547 333.652C98.5469 333.652 93.0469 327.985 93.0469 321.152V296.818C100.714 299.152 108.714 300.318 117.047 300.318H118.047Z"
		fill="#C32525" />
	<path
		d="M37.1693 92.8477C34.8359 100.514 33.6693 108.681 33.6693 117.014V117.848H12.8359C6.0026 117.848 0.335938 112.348 0.335938 105.348C0.335938 98.5143 6.0026 92.8477 12.8359 92.8477H37.1693V92.8477Z"
		fill="#C32525" />
	<path
		d="M33.6693 154.5V179.5H12.8359C6.0026 179.5 0.335938 173.833 0.335938 167C0.335938 160 6.0026 154.5 12.8359 154.5H33.6693Z"
		fill="#C32525" />
	<path
		d="M37.1693 241.154H12.8359C6.0026 241.154 0.335938 235.488 0.335938 228.654C0.335938 221.654 6.0026 216.154 12.8359 216.154H33.6693V216.988C33.6693 225.321 34.8359 233.488 37.1693 241.154Z"
		fill="#C32525" />
	<g filter="url(#filter0_d_463_665)">
		<path
			d="M254.708 129.338V204.505C254.708 232.171 232.375 254.505 204.708 254.505H129.375C101.708 254.505 79.375 232.171 79.375 204.505V129.338C79.375 101.671 101.708 79.3379 129.375 79.3379H204.542C232.208 79.3379 254.708 101.838 254.708 129.338Z"
			fill="#C32525" />
	</g>
	<g filter="url(#filter1_d_463_665)">
		<path fill-rule="evenodd" clip-rule="evenodd"
			d="M253.708 204.505V129.338C253.708 102.392 231.658 80.3379 204.542 80.3379H129.375C102.261 80.3379 80.375 102.224 80.375 129.338V204.505C80.375 231.619 102.261 253.505 129.375 253.505H204.708C231.823 253.505 253.708 231.619 253.708 204.505ZM254.708 204.505V129.338C254.708 101.838 232.208 79.3379 204.542 79.3379H129.375C101.708 79.3379 79.375 101.671 79.375 129.338V204.505C79.375 232.171 101.708 254.505 129.375 254.505H204.708C232.375 254.505 254.708 232.171 254.708 204.505Z"
			fill="black" />
	</g>
	<defs>
		<filter id="filter0_d_463_665" x="75.375" y="79.3379" width="183.336" height="183.166"
			filterUnits="userSpaceOnUse" color-interpolation-filters="sRGB">
			<feFlood flood-opacity="0" result="BackgroundImageFix" />
			<feColorMatrix in="SourceAlpha" type="matrix"
				values="0 0 0 0 0 0 0 0 0 0 0 0 0 0 0 0 0 0 127 0" result="hardAlpha" />
			<feOffset dy="4" />
			<feGaussianBlur stdDeviation="2" />
			<feComposite in2="hardAlpha" operator="out" />
			<feColorMatrix type="matrix" values="0 0 0 0 0 0 0 0 0 0 0 0 0 0 0 0 0 0 0.25 0" />
			<feBlend mode="normal" in2="BackgroundImageFix" result="effect1_dropShadow_463_665" />
			<feBlend mode="normal" in="SourceGraphic" in2="effect1_dropShadow_463_665" result="shape" />
		</filter>
		<filter id="filter1_d_463_665" x="75.375" y="79.3379" width="183.336" height="183.166"
			filterUnits="userSpaceOnUse" color-interpolation-filters="sRGB">
			<feFlood flood-opacity="0" result="BackgroundImageFix" />
			<feColorMatrix in="SourceAlpha" type="matrix"
				values="0 0 0 0 0 0 0 0 0 0 0 0 0 0 0 0 0 0 127 0" result="hardAlpha" />
			<feOffset dy="4" />
			<feGaussianBlur stdDeviation="2" />
			<feComposite in2="hardAlpha" operator="out" />
			<feColorMatrix type="matrix" values="0 0 0 0 0 0 0 0 0 0 0 0 0 0 0 0 0 0 0.25 0" />
			<feBlend mode="normal" in2="BackgroundImageFix" result="effect1_dropShadow_463_665" />
			<feBlend mode="normal" in="SourceGraphic" in2="effect1_dropShadow_463_665" result="shape" />
		</filter>
	</defs>
</svg>
