<svg width="72" height="72" viewBox="0 0 72 72" fill="none" xmlns="http://www.w3.org/2000/svg">
<g clip-path="url(#clip0_973_41800)">
<path d="M36 0C16.1179 0 0 16.1179 0 36C0 55.8833 16.1179 72 36 72C55.8833 72 72 55.8833 72 36C72 16.1179 55.8833 0 36 0ZM36 67.5709C18.6311 67.5709 4.5 53.3689 4.5 35.9999C4.5 18.631 18.6311 4.49986 36 4.49986C53.3689 4.49986 67.5 18.6311 67.5 35.9999C67.5 53.3687 53.3689 67.5709 36 67.5709ZM48.7271 23.2729C47.8485 22.3943 46.4243 22.3943 45.5456 23.2729L36 32.8185L26.4544 23.2729C25.5757 22.3943 24.1515 22.3943 23.2718 23.2729C22.3931 24.1515 22.3931 25.5757 23.2718 26.4544L32.8174 36L23.2718 45.5456C22.3931 46.4231 22.3931 47.8497 23.2718 48.7272C24.1504 49.6058 25.5746 49.6058 26.4544 48.7272L36 39.1816L45.5456 48.7272C46.4243 49.6058 47.8485 49.6058 48.7271 48.7272C49.6058 47.8497 49.6058 46.4231 48.7271 45.5456L39.1815 36L48.7271 26.4544C49.6069 25.5746 49.6069 24.1504 48.7271 23.2729Z" fill="#0088C6"/>
</g>
<defs>
<clipPath id="clip0_973_41800">
<rect width="72" height="72" fill="white"/>
</clipPath>
</defs>
</svg>
