<svg width="90" height="90" viewBox="0 0 90 90" fill="none" xmlns="http://www.w3.org/2000/svg">
<circle cx="45" cy="45" r="44.8" fill="url(#paint0_linear_632_7484)" fill-opacity="0.1"/>
<path fill-rule="evenodd" clip-rule="evenodd" d="M48.4152 17.1715C51.2362 17.542 53.7901 18.256 56.2129 19.3517C57.6772 20.0137 58.1808 20.4177 58.418 21.1209C58.9823 22.7921 57.1905 24.1894 55.5553 23.3535C54.4522 22.7895 52.3508 21.9989 51.0211 21.6474C47.1622 20.6275 42.895 20.6014 39.0544 21.5742C31.3579 23.5239 25.2232 29.0072 22.3643 36.4923C20.6745 40.9161 20.3894 46.1934 21.5847 50.9181C23.4183 58.1657 28.4953 64.1419 35.3276 67.0948C38.7907 68.5916 42.0347 69.2041 45.7704 69.0664C48.7883 68.9553 51.1747 68.4494 53.9279 67.3371C60.3076 64.7599 65.3473 59.4942 67.6144 53.0376C68.4683 50.6057 68.8323 48.6169 68.9542 45.7169C69.0406 43.6622 69.0607 43.5332 69.3678 43.0684C69.9386 42.204 71.2275 41.9434 72.0209 42.5319C72.1903 42.6576 72.4526 42.9425 72.6038 43.165C72.8556 43.5356 72.8785 43.7091 72.8785 45.2383C72.8785 47.6089 72.5804 49.8629 71.9554 52.2203C69.645 60.9327 63.2584 68.0014 54.7454 71.2684C53.4167 71.7782 50.8938 72.4522 49.3116 72.7197C47.6997 72.9925 43.811 73.0911 42.0847 72.9031C35.5118 72.1876 29.7252 69.4312 25.1299 64.8267C20.9184 60.6069 18.2524 55.3662 17.234 49.3055C16.922 47.4489 16.922 42.5541 17.234 40.6975C18.2534 34.6313 20.9146 29.4 25.1299 25.1763C29.6119 20.6852 35.5128 17.8228 41.7408 17.1182C43.3182 16.9398 46.8667 16.968 48.4152 17.1715ZM72.387 24.5206C72.6593 24.8131 72.8762 25.1908 72.9266 25.4602C73.1326 26.5606 73.8289 25.8107 59.4822 39.9418C52.1831 47.1314 46.0006 53.1899 45.7434 53.4052C45.1567 53.8964 44.413 54.0328 43.7761 53.7662C43.1767 53.5151 30.1732 40.7028 30.0537 40.2453C29.7021 38.9001 30.5643 37.6534 31.8376 37.6659C32.1466 37.6689 32.5496 37.7377 32.733 37.8188C32.9165 37.8999 35.6181 40.4851 38.7366 43.5638C41.8551 46.6426 44.4387 49.1614 44.478 49.1614C44.5173 49.1614 50.1954 43.5936 57.096 36.7882C63.9967 29.983 69.8075 24.309 70.009 24.1793C70.2974 23.9937 70.5407 23.953 71.1535 23.9876C71.8804 24.0287 71.9618 24.064 72.387 24.5206Z" fill="#0089C7"/>
<defs>
<linearGradient id="paint0_linear_632_7484" x1="45" y1="0.200012" x2="45" y2="89.8" gradientUnits="userSpaceOnUse">
<stop stop-color="#0688C7"/>
<stop offset="1" stop-color="#0688C7"/>
</linearGradient>
</defs>
</svg>
